<?xml version="1.0" standalone="no"?>
<!DOCTYPE svg PUBLIC "-//W3C//DTD SVG 20010904//EN"
 "http://www.w3.org/TR/2001/REC-SVG-20010904/DTD/svg10.dtd">
<svg version="1.0" xmlns="http://www.w3.org/2000/svg"
 width="512.000000pt" height="512.000000pt" viewBox="0 0 512.000000 512.000000"
 preserveAspectRatio="xMidYMid meet">
<metadata>
Created by potrace 1.14, written by Peter Selinger 2001-2017
</metadata>
<g transform="translate(0.000000,512.000000) scale(0.100000,-0.100000)"
fill="#000000" stroke="none">
<path d="M2325 5104 c-16 -2 -80 -11 -142 -20 -249 -34 -502 -113 -748 -234
-264 -129 -459 -269 -686 -492 -394 -386 -641 -885 -725 -1463 -25 -167 -25
-516 -1 -675 72 -468 232 -854 508 -1220 114 -152 218 -255 424 -421 329 -267
726 -451 1135 -528 341 -64 759 -52 1085 30 587 148 1104 497 1457 984 347
478 522 1083 480 1660 -40 544 -231 1031 -569 1450 -83 103 -116 136 -263 272
-367 337 -826 556 -1335 639 -95 15 -545 28 -620 18z m562 -245 c341 -47 667
-169 948 -357 114 -76 315 -236 315 -250 0 -4 -31 -45 -68 -92 -37 -47 -87
-116 -112 -153 -25 -36 -48 -67 -53 -67 -4 0 -47 23 -95 50 -51 29 -100 50
-118 50 -78 0 -131 -80 -101 -152 12 -29 32 -45 106 -87 72 -42 91 -57 91 -75
0 -12 -4 -26 -9 -31 -13 -13 -113 -246 -135 -312 -10 -29 -23 -53 -29 -53 -7
1 -52 11 -101 24 -104 28 -136 23 -180 -25 -24 -27 -27 -38 -23 -73 8 -57 37
-78 156 -111 114 -31 108 -22 86 -136 -7 -42 -20 -135 -26 -207 l-13 -132 -93
0 c-135 0 -194 -31 -196 -103 -2 -82 56 -117 196 -117 l93 0 13 -132 c6 -72
19 -165 26 -207 22 -114 28 -105 -86 -136 -119 -33 -148 -54 -156 -111 -4 -35
-1 -46 23 -73 44 -48 76 -53 180 -25 49 13 94 23 100 24 6 0 26 -42 44 -92 17
-51 54 -140 81 -198 27 -57 48 -109 45 -116 -2 -6 -41 -32 -85 -58 -82 -47
-104 -70 -116 -118 -10 -40 21 -97 64 -115 46 -20 76 -12 170 42 43 25 82 45
87 45 5 -1 32 -36 61 -78 29 -43 79 -110 113 -150 33 -39 60 -76 60 -80 0 -5
-35 -38 -77 -74 -357 -300 -735 -472 -1186 -539 -170 -25 -461 -27 -627 -4
-462 65 -863 243 -1209 539 -45 38 -81 72 -81 75 0 3 31 44 68 91 37 47 87
116 112 153 25 36 48 67 53 67 4 0 47 -23 95 -50 96 -55 130 -60 178 -31 46
28 61 80 37 129 -14 29 -37 48 -105 87 -73 42 -87 54 -88 75 0 15 4 30 9 35
13 13 113 246 135 312 10 29 23 53 29 53 7 0 52 -11 102 -24 103 -27 135 -23
178 24 35 40 35 80 0 120 -22 24 -48 36 -123 56 -52 14 -99 30 -104 35 -6 5
-3 45 7 101 9 51 22 150 29 220 l12 126 107 4 c90 2 112 6 136 24 57 42 64
102 18 160 -23 28 -25 29 -141 34 l-119 5 -12 127 c-6 70 -19 168 -27 218 -9
49 -16 92 -16 94 0 2 46 16 103 32 124 34 157 60 157 124 0 34 -6 48 -34 76
-42 42 -68 43 -186 9 -46 -13 -87 -22 -91 -20 -3 3 -19 39 -34 82 -15 43 -52
131 -81 196 -30 65 -52 122 -49 126 3 5 41 30 85 55 81 47 103 70 115 118 10
40 -21 97 -64 115 -46 20 -76 12 -170 -42 -43 -25 -82 -45 -87 -45 -5 0 -26
26 -46 58 -20 31 -71 100 -113 151 -41 52 -75 98 -75 102 0 12 198 171 289
232 487 328 1045 457 1628 376z m-2021 -841 c67 -85 144 -194 144 -204 0 -5
-37 -29 -82 -54 -87 -48 -118 -84 -118 -135 0 -47 33 -93 74 -100 44 -9 61 -3
152 51 42 24 80 42 85 38 22 -14 157 -339 145 -351 -3 -3 -47 -16 -98 -30
-102 -27 -133 -48 -148 -101 -17 -63 30 -132 90 -132 14 0 63 11 110 25 66 19
88 21 97 12 13 -13 39 -169 49 -294 l7 -83 -104 0 c-85 0 -110 -4 -135 -19
-42 -25 -60 -78 -44 -125 18 -55 32 -61 159 -66 l116 -5 -2 -80 c-2 -85 -30
-275 -43 -288 -4 -5 -50 3 -103 17 -52 13 -106 22 -119 19 -65 -16 -105 -102
-74 -162 20 -38 34 -45 147 -76 50 -13 93 -26 95 -28 14 -13 -127 -347 -146
-347 -6 0 -45 20 -88 45 -80 47 -120 55 -167 33 -30 -13 -55 -55 -55 -90 0
-54 12 -69 106 -125 52 -30 94 -60 94 -65 0 -12 -74 -118 -144 -206 l-51 -63
-23 28 c-279 334 -460 729 -528 1149 -25 153 -30 482 -10 634 57 436 224 837
484 1163 34 42 66 77 70 77 5 0 31 -28 58 -62z m3517 -20 c269 -346 440 -765
486 -1190 14 -125 14 -371 0 -496 -46 -426 -216 -843 -486 -1190 -35 -45 -68
-82 -73 -82 -15 0 -200 241 -200 261 0 4 39 29 86 55 92 52 114 79 114 138 0
25 -9 45 -29 68 -44 50 -94 46 -192 -15 -42 -26 -82 -47 -88 -47 -7 0 -28 33
-46 74 -38 81 -107 267 -102 272 2 2 47 17 101 33 104 31 141 56 151 102 9 39
-11 94 -40 113 -33 21 -81 20 -177 -5 -45 -11 -84 -17 -88 -12 -11 11 -38 181
-46 285 l-7 86 116 4 c130 3 148 12 168 79 10 31 9 43 -7 75 -27 54 -52 64
-173 64 l-104 0 7 88 c8 103 35 274 46 285 4 4 47 -2 96 -14 113 -28 140 -27
174 6 33 31 41 65 29 110 -14 48 -39 65 -146 96 -53 16 -98 31 -100 33 -6 6
77 225 108 289 16 31 34 57 40 57 6 0 46 -21 88 -47 98 -61 148 -65 192 -15
20 23 29 43 29 68 0 59 -22 86 -114 138 -47 26 -86 51 -86 56 0 21 184 260
200 260 5 0 38 -37 73 -82z"/>
<path d="M1653 1154 c-10 -4 -13 -87 -13 -365 l0 -360 63 3 62 3 3 138 3 137
117 0 c150 0 207 15 255 69 105 116 59 321 -81 361 -40 12 -389 24 -409 14z
m369 -135 c27 -14 51 -74 43 -109 -3 -15 -17 -38 -31 -51 -23 -22 -36 -24
-145 -28 l-119 -3 0 101 0 101 116 0 c63 0 124 -5 136 -11z"/>
<path d="M2253 1153 c-7 -2 -13 -10 -13 -16 0 -7 51 -84 114 -171 l113 -160
-55 -75 c-31 -42 -89 -120 -129 -173 -40 -53 -73 -104 -73 -113 0 -13 12 -15
72 -13 l72 3 95 132 94 131 94 -134 94 -134 70 0 c60 0 69 2 69 18 0 10 -54
94 -120 187 -66 93 -120 172 -120 177 0 5 50 74 110 155 61 80 110 154 110
164 0 21 -20 29 -71 29 -47 0 -53 -6 -154 -144 -38 -52 -73 -94 -77 -93 -3 1
-41 52 -84 112 -43 61 -82 113 -88 117 -12 9 -104 9 -123 1z"/>
<path d="M2933 1153 c-10 -4 -13 -86 -13 -364 l0 -360 63 3 62 3 3 138 3 137
117 0 c149 0 207 16 255 69 45 50 60 98 55 177 -3 50 -10 72 -34 106 -42 60
-78 78 -181 88 -92 10 -309 12 -330 3z m369 -134 c27 -14 51 -74 43 -109 -3
-15 -17 -38 -31 -51 -23 -22 -36 -24 -145 -28 l-119 -3 0 101 0 101 116 0 c63
0 124 -5 136 -11z"/>
</g>
</svg>
